<svg width="16" height="16" viewBox="0 0 16 16" fill="none" xmlns="http://www.w3.org/2000/svg">
<path fill-rule="evenodd" clip-rule="evenodd" d="M14.3905 2.20229H9.3255V1.00879L1 2.29379V13.5573L9.3255 14.9913V13.2223H14.3905C14.544 13.2303 14.6943 13.1771 14.8086 13.0744C14.9229 12.9716 14.9917 12.8277 15 12.6743V2.74979C14.9916 2.59643 14.9227 2.45265 14.8085 2.35001C14.6942 2.24737 14.5439 2.19425 14.3905 2.20229ZM14.4705 12.7653H9.3085L9.3 11.8208H10.5435V10.7208H9.2905L9.2845 10.0708H10.5435V8.97079H9.275L9.269 8.32079H10.5435V7.22079H9.265V6.57079H10.5435V5.47079H9.265V4.82079H10.5435V3.72079H9.265V2.72079H14.4705V12.7653Z" fill="#20744A"/>
<path d="M11.2435 3.71973H13.405V4.81973H11.2435V3.71973ZM11.2435 5.47023H13.405V6.57023H11.2435V5.47023ZM11.2435 7.22073H13.405V8.32073H11.2435V7.22073ZM11.2435 8.97123H13.405V10.0712H11.2435V8.97123ZM11.2435 10.7217H13.405V11.8217H11.2435V10.7217Z" fill="#20744A"/>
<path fill-rule="evenodd" clip-rule="evenodd" d="M3.1735 5.33671L4.2465 5.27521L4.921 7.12971L5.718 5.19871L6.791 5.13721L5.488 7.77021L6.791 10.4097L5.6565 10.3332L4.8905 8.32121L4.124 10.2567L3.0815 10.1647L4.2925 7.83321L3.1735 5.33671Z" fill="white"/>
</svg>
