<svg width="32" height="32" viewBox="0 0 32 32" fill="none" xmlns="http://www.w3.org/2000/svg">
<path d="M24 0C28.4183 0 32 3.58172 32 8V24C32 28.4183 28.4183 32 24 32H8C3.58172 32 0 28.4183 0 24V8C0 3.58172 3.58172 0 8 0H24Z" fill="url(#paint0_linear_313_88)"/>
<path d="M24 0C28.4183 0 32 3.58172 32 8V24C32 28.4183 28.4183 32 24 32H8C3.58172 32 0 28.4183 0 24V8C0 3.58172 3.58172 0 8 0H24Z" stroke="#E5E7EB"/>
<g clip-path="url(#clip0_313_88)">
<g clip-path="url(#clip1_313_88)">
<path d="M16 9.625C13.7907 9.625 12.0215 10.6313 10.7336 11.8289C9.45396 13.0156 8.5981 14.4375 8.19341 15.4137C8.10317 15.6297 8.10317 15.8703 8.19341 16.0863C8.5981 17.0625 9.45396 18.4844 10.7336 19.6711C12.0215 20.8687 13.7907 21.875 16 21.875C18.2094 21.875 19.9786 20.8687 21.2665 19.6711C22.5461 18.4816 23.402 17.0625 23.8094 16.0863C23.8997 15.8703 23.8997 15.6297 23.8094 15.4137C23.402 14.4375 22.5461 13.0156 21.2665 11.8289C19.9786 10.6313 18.2094 9.625 16 9.625ZM12.0625 15.75C12.0625 14.7057 12.4774 13.7042 13.2158 12.9658C13.9542 12.2273 14.9558 11.8125 16 11.8125C17.0443 11.8125 18.0459 12.2273 18.7843 12.9658C19.5227 13.7042 19.9375 14.7057 19.9375 15.75C19.9375 16.7943 19.5227 17.7958 18.7843 18.5342C18.0459 19.2727 17.0443 19.6875 16 19.6875C14.9558 19.6875 13.9542 19.2727 13.2158 18.5342C12.4774 17.7958 12.0625 16.7943 12.0625 15.75ZM16 14C16 14.9652 15.2153 15.75 14.25 15.75C14.0559 15.75 13.87 15.7172 13.695 15.6598C13.5446 15.6105 13.3696 15.7035 13.375 15.8621C13.3833 16.0508 13.4106 16.2395 13.4625 16.4281C13.8372 17.8281 15.2782 18.6594 16.6782 18.2848C18.0782 17.9102 18.9094 16.4691 18.5348 15.0691C18.2313 13.9344 17.2278 13.1715 16.1122 13.125C15.9536 13.1195 15.8606 13.2918 15.9098 13.4449C15.9672 13.6199 16 13.8059 16 14Z" fill="white"/>
</g>
</g>
<defs>
<linearGradient id="paint0_linear_313_88" x1="0" y1="16" x2="32" y2="16" gradientUnits="userSpaceOnUse">
<stop stop-color="#2563EB"/>
<stop offset="1" stop-color="#9333EA"/>
</linearGradient>
<clipPath id="clip0_313_88">
<rect width="15.75" height="14" fill="white" transform="translate(8.125 8.75)"/>
</clipPath>
<clipPath id="clip1_313_88">
<path d="M8.125 8.75H23.875V22.75H8.125V8.75Z" fill="white"/>
</clipPath>
</defs>
</svg>
