<svg width="12" height="16" viewBox="0 0 12 16" fill="none" xmlns="http://www.w3.org/2000/svg">
<path d="M2 0C0.896875 0 0 0.896875 0 2V14C0 15.1031 0.896875 16 2 16H10C11.1031 16 12 15.1031 12 14V5H8C7.44688 5 7 4.55312 7 4V0H2ZM8 0V4H12L8 0ZM3.46875 8.03438L4.30625 10.8219L5.29375 8C5.4 7.7 5.68438 7.49687 6.00313 7.49687C6.32188 7.49687 6.60625 7.69688 6.7125 8L7.7 10.8219L8.53125 8.03438C8.65 7.6375 9.06875 7.4125 9.46562 7.53125C9.8625 7.65 10.0875 8.06875 9.96875 8.46562L8.46875 13.4656C8.375 13.7781 8.09375 13.9937 7.76875 14C7.44375 14.0063 7.15 13.8062 7.04375 13.4969L6 10.5188L4.95937 13.4969C4.85313 13.8031 4.55937 14.0063 4.23438 14C3.90937 13.9937 3.625 13.7781 3.53437 13.4656L2.03437 8.46562C1.91562 8.06875 2.14062 7.65 2.5375 7.53125C2.93437 7.4125 3.35312 7.6375 3.47187 8.03438H3.46875Z" fill="#3B82F6"/>
</svg>
